<mxfile host="app.diagrams.net" modified="2024-03-25T19:34:28.072Z" agent="Mozilla/5.0 (Windows NT 10.0; Win64; x64) AppleWebKit/537.36 (KHTML, like Gecko) Chrome/122.0.0.0 Safari/537.36" etag="fgGIigabApH3EONHK42A" version="24.1.0" type="github">
  <diagram name="Page-1" id="fXy_dkRvK47TNVks9-3I">
    <mxGraphModel dx="1430" dy="763" grid="1" gridSize="10" guides="1" tooltips="1" connect="1" arrows="1" fold="1" page="1" pageScale="1" pageWidth="850" pageHeight="1100" math="0" shadow="0">
      <root>
        <mxCell id="0" />
        <mxCell id="1" parent="0" />
        <mxCell id="2rngX9uAUi6fAcJIuBnt-1" value="" style="endArrow=none;html=1;rounded=0;" edge="1" parent="1">
          <mxGeometry width="50" height="50" relative="1" as="geometry">
            <mxPoint x="80" y="330" as="sourcePoint" />
            <mxPoint x="80" y="70" as="targetPoint" />
          </mxGeometry>
        </mxCell>
        <mxCell id="2rngX9uAUi6fAcJIuBnt-2" value="" style="endArrow=none;html=1;rounded=0;" edge="1" parent="1">
          <mxGeometry width="50" height="50" relative="1" as="geometry">
            <mxPoint x="80" y="330" as="sourcePoint" />
            <mxPoint x="350" y="330" as="targetPoint" />
          </mxGeometry>
        </mxCell>
        <mxCell id="2rngX9uAUi6fAcJIuBnt-5" value="" style="edgeStyle=orthogonalEdgeStyle;orthogonalLoop=1;jettySize=auto;html=1;rounded=0;curved=1;" edge="1" parent="1">
          <mxGeometry width="80" relative="1" as="geometry">
            <mxPoint x="80" y="330" as="sourcePoint" />
            <mxPoint x="360" y="180" as="targetPoint" />
            <Array as="points">
              <mxPoint x="140" y="330" />
              <mxPoint x="140" y="180" />
            </Array>
          </mxGeometry>
        </mxCell>
        <mxCell id="2rngX9uAUi6fAcJIuBnt-6" value="Distance" style="text;html=1;align=center;verticalAlign=middle;resizable=0;points=[];autosize=1;strokeColor=none;fillColor=none;" vertex="1" parent="1">
          <mxGeometry x="180" y="340" width="70" height="30" as="geometry" />
        </mxCell>
        <mxCell id="2rngX9uAUi6fAcJIuBnt-7" value="I_IR" style="text;html=1;align=center;verticalAlign=middle;resizable=0;points=[];autosize=1;strokeColor=none;fillColor=none;" vertex="1" parent="1">
          <mxGeometry x="20" y="200" width="50" height="30" as="geometry" />
        </mxCell>
        <mxCell id="2rngX9uAUi6fAcJIuBnt-18" value="" style="shape=stencil(nVjbUhsxDP2avGosX+VnSv+DGULJlBIm0NvfV27qZS2Hs9C3TVbHax1JR7J34er5/uZpv/Pu+eV0/Lr/ebh9ud+FTzvvD4/3+9PhRZ924XoXru6Op/2X0/H74+3599NNs2xP344/2gq/zrhaKIaG8u73+Z9E3v394/PZ/uHwaOzLYM9MOULAv9cLoFLOACAU/ADwyzcvAyrx6EIIlJEPlZIbAJHJeQjIMgIqFYaAUkdWhSRAgKQBkCNVDKij0yWQA06zc/19R4ijWmEgqgEIJeS10j7uqUYKIHK6nngLELAliT2wK0AFyVTq9IVEDqRrScTZAhjwWrivt9pSAZHLhXhMpsYboDV7KmNuVE8R+JC05IzTjooAgCdmC4iA1qg+1A8BmMQ4zZ2Gi4AgNlub04BWrXmZkg/JRnBTpDMUJp8pGYDALXlvi7oJCarRQnUCCGCJg1WypgsJlCi5MtmDgtN6Gze0kpHLrE6kVpjcPEVNOQUeOxLjcKYCpHsOcqQEYjaJpKYdQ3vTrESlH2QddzFZ7AsVwKcnPwZAMjGo/WADJtrPkVZYftSekRj1aK7sCxJgkmz9RetLZ2/FJ9LravlRXQmob072gQpYf9qP5psD60/+6vyDGtTEp9ZLAPzM7anC9ad8aIqCNGviR+AcMuWz+ota/lQv2l4DyP9L9VhBvOZ6dxv1LtOME8D6k15pPSYgoKqHJp8TbpQX6tcBPj9qPzWAZo87TKwWwEBwtYfJ9AUGLUlTzgzXbUugBLRmzOgrAWsiT047ymg0SL2nLMO1wKqMrifBAsg9MJcBmgVj3pUE+1hyffReA0AipUi+WgCq/KTSmK0PHklXsFNj0YMacFonXzO9K61oVC5+6paOPGBJdyzRAhKSd576t4Pzipa7rQeHz7+afAbgoWLUaUsauIiOXWxzSYmuG4Ax0pmpAloVkMYtpdRn4bcA5iQYM55LuRfkcobfOGsubX4BeDg4vh6BlmuF3Il+C5DHwG1dXDjb+7euRpw9YG/cvSzn9cVn2AuVIz+S6qFkqL2RPYblqa04jALg4OldRy1n7VHvb6NZMfbo7NFG+/wR+2QrbWM/ud8SvdPfabjb4LOQG/e/Ea/SR5V35sN/3PVhe314vVi8Ozw8nO8l1+/tRaT+db7EDNd/AA==);lineShape=1;strokeColor=#EA6B66;" vertex="1" parent="1">
          <mxGeometry x="156.2626714201151" y="196.17155300979869" width="46.81332239505192" height="29.216620126488532" as="geometry" />
        </mxCell>
        <mxCell id="2rngX9uAUi6fAcJIuBnt-31" style="edgeStyle=entityRelationEdgeStyle;rounded=0;orthogonalLoop=1;jettySize=auto;html=1;entryX=0;entryY=0.5;entryDx=0;entryDy=0;exitX=0.5;exitY=1;exitDx=0;exitDy=0;" edge="1" parent="1" source="2rngX9uAUi6fAcJIuBnt-26" target="2rngX9uAUi6fAcJIuBnt-29">
          <mxGeometry relative="1" as="geometry">
            <Array as="points">
              <mxPoint x="460" y="240" />
              <mxPoint x="460" y="250" />
            </Array>
          </mxGeometry>
        </mxCell>
        <mxCell id="2rngX9uAUi6fAcJIuBnt-26" value="Check displacement current (Acc)&amp;nbsp;" style="rounded=1;whiteSpace=wrap;html=1;" vertex="1" parent="1">
          <mxGeometry x="460" y="70" width="120" height="60" as="geometry" />
        </mxCell>
        <mxCell id="2rngX9uAUi6fAcJIuBnt-30" style="edgeStyle=entityRelationEdgeStyle;rounded=0;orthogonalLoop=1;jettySize=auto;html=1;entryX=1;entryY=0.5;entryDx=0;entryDy=0;exitX=0.75;exitY=1;exitDx=0;exitDy=0;" edge="1" parent="1" source="2rngX9uAUi6fAcJIuBnt-27" target="2rngX9uAUi6fAcJIuBnt-29">
          <mxGeometry relative="1" as="geometry" />
        </mxCell>
        <mxCell id="2rngX9uAUi6fAcJIuBnt-27" value="Check displacement current (Dec)&amp;nbsp;" style="rounded=1;whiteSpace=wrap;html=1;" vertex="1" parent="1">
          <mxGeometry x="670" y="70" width="120" height="60" as="geometry" />
        </mxCell>
        <mxCell id="2rngX9uAUi6fAcJIuBnt-29" value="Take the difference in ADC&amp;nbsp;" style="rounded=1;whiteSpace=wrap;html=1;" vertex="1" parent="1">
          <mxGeometry x="580" y="180" width="120" height="60" as="geometry" />
        </mxCell>
        <mxCell id="2rngX9uAUi6fAcJIuBnt-40" style="edgeStyle=entityRelationEdgeStyle;rounded=0;orthogonalLoop=1;jettySize=auto;html=1;" edge="1" parent="1" source="2rngX9uAUi6fAcJIuBnt-32" target="2rngX9uAUi6fAcJIuBnt-34">
          <mxGeometry relative="1" as="geometry" />
        </mxCell>
        <mxCell id="2rngX9uAUi6fAcJIuBnt-41" value="Yes" style="edgeLabel;html=1;align=center;verticalAlign=middle;resizable=0;points=[];" vertex="1" connectable="0" parent="2rngX9uAUi6fAcJIuBnt-40">
          <mxGeometry x="-0.0438" y="3" relative="1" as="geometry">
            <mxPoint as="offset" />
          </mxGeometry>
        </mxCell>
        <mxCell id="2rngX9uAUi6fAcJIuBnt-32" value="Is Force Sensor Reading &amp;gt; 0?&amp;nbsp;" style="rounded=1;whiteSpace=wrap;html=1;" vertex="1" parent="1">
          <mxGeometry x="580" y="310" width="120" height="60" as="geometry" />
        </mxCell>
        <mxCell id="2rngX9uAUi6fAcJIuBnt-34" value="Adjust PWM output of VESC using I2C" style="rounded=1;whiteSpace=wrap;html=1;" vertex="1" parent="1">
          <mxGeometry x="580" y="410" width="120" height="60" as="geometry" />
        </mxCell>
        <mxCell id="2rngX9uAUi6fAcJIuBnt-48" value="" style="edgeStyle=none;orthogonalLoop=1;jettySize=auto;html=1;rounded=0;exitX=0.5;exitY=1;exitDx=0;exitDy=0;entryX=0.5;entryY=0;entryDx=0;entryDy=0;" edge="1" parent="1" source="2rngX9uAUi6fAcJIuBnt-29" target="2rngX9uAUi6fAcJIuBnt-32">
          <mxGeometry width="80" relative="1" as="geometry">
            <mxPoint x="420" y="390" as="sourcePoint" />
            <mxPoint x="500" y="390" as="targetPoint" />
            <Array as="points" />
          </mxGeometry>
        </mxCell>
        <mxCell id="2rngX9uAUi6fAcJIuBnt-49" value="" style="edgeStyle=none;orthogonalLoop=1;jettySize=auto;html=1;rounded=0;exitX=0;exitY=0.5;exitDx=0;exitDy=0;entryX=0;entryY=0.5;entryDx=0;entryDy=0;" edge="1" parent="1" source="2rngX9uAUi6fAcJIuBnt-32" target="2rngX9uAUi6fAcJIuBnt-26">
          <mxGeometry width="80" relative="1" as="geometry">
            <mxPoint x="420" y="390" as="sourcePoint" />
            <mxPoint x="500" y="390" as="targetPoint" />
            <Array as="points">
              <mxPoint x="400" y="340" />
              <mxPoint x="400" y="100" />
            </Array>
          </mxGeometry>
        </mxCell>
        <mxCell id="2rngX9uAUi6fAcJIuBnt-50" value="No&lt;div&gt;&lt;br&gt;&lt;/div&gt;" style="edgeLabel;html=1;align=center;verticalAlign=middle;resizable=0;points=[];" vertex="1" connectable="0" parent="2rngX9uAUi6fAcJIuBnt-49">
          <mxGeometry x="-0.6176" y="-1" relative="1" as="geometry">
            <mxPoint as="offset" />
          </mxGeometry>
        </mxCell>
        <mxCell id="2rngX9uAUi6fAcJIuBnt-51" value="" style="edgeStyle=none;orthogonalLoop=1;jettySize=auto;html=1;rounded=0;entryX=0.5;entryY=0;entryDx=0;entryDy=0;" edge="1" parent="1" target="2rngX9uAUi6fAcJIuBnt-27">
          <mxGeometry width="80" relative="1" as="geometry">
            <mxPoint x="400" y="100" as="sourcePoint" />
            <mxPoint x="500" y="390" as="targetPoint" />
            <Array as="points">
              <mxPoint x="400" y="40" />
              <mxPoint x="730" y="40" />
            </Array>
          </mxGeometry>
        </mxCell>
      </root>
    </mxGraphModel>
  </diagram>
</mxfile>
